<svg xmlns="http://www.w3.org/2000/svg" xmlns:xlink="http://www.w3.org/1999/xlink" width="52" height="51" viewBox="0 0 52 51">
    <defs>
        <path id="a" d="M.798.956h52v51h-52z"/>
    </defs>
    <g fill="none" fill-rule="evenodd" transform="translate(-.798 -.956)">
        <mask id="b" fill="#fff">
            <use xlink:href="#a"/>
        </mask>
        <path fill="#49A4B0" d="M8.753 18.855l16.586 16.55-2.764 2.759L5.99 21.614l2.764-2.76zm-4.177-5.762a5.029 5.029 0 0 1 3.563-1.471c1.229 0 2.396.429 3.379 1.287l-3.563 3.555-3.563 3.555c-1.781-2.022-1.72-5.026.184-6.926zm25.125 17.96l-2.764 2.759L10.35 17.26l2.764-2.758L29.7 31.053zm1.781 8.888l-6.573-.858 5.713-5.7.86 6.558zm-8.907 1.104l10.074 1.348h.123c.307 0 .615-.122.799-.306a1.13 1.13 0 0 0 .307-.981l-1.351-10.053c-.062-.245-.123-.49-.308-.674L13.852 12.05l-.061-.062-.553-.551c-2.826-2.82-7.495-2.82-10.32 0-2.826 2.82-2.826 7.478 0 10.298l.614.613 18.367 18.328c.185.184.43.306.676.368zm22.238-28.75c-2.09 0-3.748-1.715-3.748-3.738v-3.74l7.802 7.479h-4.054zm7.678.307L40.697 1.262c-.246-.184-.492-.306-.799-.306H18.275c-3.317 0-6.02 2.697-6.02 6.007 0 .613.491 1.165 1.167 1.165.614 0 1.167-.49 1.167-1.165 0-2.084 1.72-3.74 3.747-3.74h20.456v5.272c0 3.31 2.703 6.008 6.02 6.008h5.775v31.446c0 2.084-1.72 3.739-3.747 3.739H18.336c-2.088 0-3.747-1.717-3.747-3.74v-9.93c0-.613-.491-1.164-1.167-1.164-.614 0-1.167.49-1.167 1.164v9.93c0 3.31 2.703 6.008 6.02 6.008h28.503c3.317 0 6.02-2.697 6.02-6.007V13.338c0-.184-.123-.49-.307-.736z" mask="url(#b)"/>
    </g>
</svg>
