<svg xmlns="http://www.w3.org/2000/svg" width="78" height="67" viewBox="0 0 78 67">
    <g fill="none" fill-rule="evenodd">
        <path fill="#49A4B0" d="M20.448 59.6h39.103v-4.2H20.448v4.2zM60.274 54h-40.55c-.4 0-.724.312-.724.7v5.6c0 .39.325.7.724.7h40.551c.4 0 .725-.31.725-.7v-5.6c0-.388-.327-.7-.726-.7z"/>
        <path stroke="#49A4B0" stroke-width=".25" d="M20.448 59.6h39.103v-4.2H20.448v4.2zM60.274 54h-40.55c-.4 0-.724.312-.724.7v5.6c0 .39.325.7.724.7h40.551c.4 0 .725-.31.725-.7v-5.6c0-.388-.327-.7-.726-.7z"/>
        <path fill="#49A4B0" d="M75.566 56.613c0 4.38-3.536 7.944-7.886 7.944H10.32c-4.35 0-7.887-3.563-7.887-7.944V33.502c0-4.38 3.536-7.945 7.887-7.945H67.68c4.35 0 7.886 3.563 7.886 7.945v23.11zM67.68 24.112H39.74c.224-8.735 4.463-9.355 9.36-10.037 5.014-.703 10.693-1.496 10.693-12.352A.72.72 0 0 0 59.076 1a.72.72 0 0 0-.718.723c0 9.597-4.382 10.21-9.455 10.918-4.863.68-10.336 1.472-10.595 11.47H10.32c-5.14 0-9.321 4.214-9.321 9.39v23.11C1 61.79 5.182 66 10.321 66H67.68c5.14 0 9.32-4.21 9.32-9.387V33.502c0-5.177-4.18-9.39-9.32-9.39z"/>
        <path stroke="#49A4B0" d="M75.566 56.613c0 4.38-3.536 7.944-7.886 7.944H10.32c-4.35 0-7.887-3.563-7.887-7.944V33.502c0-4.38 3.536-7.945 7.887-7.945H67.68c4.35 0 7.886 3.563 7.886 7.945v23.11zM67.68 24.112H39.74c.224-8.735 4.463-9.355 9.36-10.037 5.014-.703 10.693-1.496 10.693-12.352A.72.72 0 0 0 59.076 1a.72.72 0 0 0-.718.723c0 9.597-4.382 10.21-9.455 10.918-4.863.68-10.336 1.472-10.595 11.47H10.32c-5.14 0-9.321 4.214-9.321 9.39v23.11C1 61.79 5.182 66 10.321 66H67.68c5.14 0 9.32-4.21 9.32-9.387V33.502c0-5.177-4.18-9.39-9.32-9.39z"/>
        <path fill="#49A4B0" d="M45.6 47.599h-4.2v-4.2h4.2v4.2zM40.7 42c-.386 0-.7.31-.7.7v5.6a.7.7 0 0 0 .7.7h5.6a.7.7 0 0 0 .7-.7v-5.6a.7.7 0 0 0-.7-.7h-5.6z"/>
        <path stroke="#49A4B0" stroke-width=".25" d="M45.6 47.599h-4.2v-4.2h4.2v4.2zM40.7 42c-.386 0-.7.31-.7.7v5.6a.7.7 0 0 0 .7.7h5.6a.7.7 0 0 0 .7-.7v-5.6a.7.7 0 0 0-.7-.7h-5.6z"/>
        <path fill="#49A4B0" d="M59.4 47.599h4.201v-4.2h-4.2v4.2zm-1.4-4.9v5.6a.7.7 0 0 0 .7.701h5.6a.7.7 0 0 0 .7-.7v-5.6a.7.7 0 0 0-.7-.7h-5.6a.7.7 0 0 0-.7.7z"/>
        <path stroke="#49A4B0" stroke-width=".25" d="M59.4 47.599h4.201v-4.2h-4.2v4.2zm-1.4-4.9v5.6a.7.7 0 0 0 .7.701h5.6a.7.7 0 0 0 .7-.7v-5.6a.7.7 0 0 0-.7-.7h-5.6a.7.7 0 0 0-.7.7z"/>
        <path fill="#49A4B0" d="M50.4 47.599h4.201v-4.2h-4.2v4.2zM49.7 42c-.386 0-.7.31-.7.7v5.6a.7.7 0 0 0 .7.7h5.6a.7.7 0 0 0 .7-.7v-5.6c0-.39-.314-.7-.7-.7h-5.6zM32.399 47.599h4.2v-4.2h-4.2v4.2zm-.7-5.599c-.385 0-.699.31-.699.7v5.6a.7.7 0 0 0 .7.7h5.6a.7.7 0 0 0 .7-.7v-5.6a.7.7 0 0 0-.7-.7h-5.6z"/>
        <path stroke="#49A4B0" stroke-width=".25" d="M50.399 47.599h4.2v-4.2h-4.2v4.2zm-.7-5.599c-.385 0-.699.31-.699.7v5.6a.7.7 0 0 0 .7.7h5.6a.7.7 0 0 0 .7-.7v-5.6a.7.7 0 0 0-.7-.7h-5.6z"/>
        <path fill="#49A4B0" d="M14.4 47.599h4.2v-4.2h-4.2v4.2zM13.7 42a.7.7 0 0 0-.7.7v5.6a.7.7 0 0 0 .7.7h5.6a.7.7 0 0 0 .7-.7v-5.6a.7.7 0 0 0-.7-.7h-5.6z"/>
        <path stroke="#49A4B0" stroke-width=".25" d="M14.4 47.599h4.2v-4.2h-4.2v4.2zM13.7 42a.7.7 0 0 0-.7.7v5.6a.7.7 0 0 0 .7.7h5.6a.7.7 0 0 0 .7-.7v-5.6a.7.7 0 0 0-.7-.7h-5.6z"/>
        <path fill="#49A4B0" d="M23.399 47.599h4.2v-4.2h-4.2v4.2zM22.7 42a.7.7 0 0 0-.701.7v5.6a.7.7 0 0 0 .7.7h5.6a.7.7 0 0 0 .7-.7v-5.6a.7.7 0 0 0-.7-.7h-5.6z"/>
        <path stroke="#49A4B0" stroke-width=".25" d="M23.399 47.599h4.2v-4.2h-4.2v4.2zM22.7 42a.7.7 0 0 0-.701.7v5.6a.7.7 0 0 0 .7.7h5.6a.7.7 0 0 0 .7-.7v-5.6a.7.7 0 0 0-.7-.7h-5.6z"/>
        <path fill="#49A4B0" d="M54.4 37.601h4.2v-4.2h-4.2v4.2zM53.7 39h5.6a.7.7 0 0 0 .7-.7v-5.6a.7.7 0 0 0-.7-.7h-5.6a.7.7 0 0 0-.7.7v5.6c0 .39.315.7.7.7z"/>
        <path stroke="#49A4B0" stroke-width=".25" d="M54.4 37.601h4.2v-4.2h-4.2v4.2zM53.7 39h5.6a.7.7 0 0 0 .7-.7v-5.6a.7.7 0 0 0-.7-.7h-5.6a.7.7 0 0 0-.7.7v5.6c0 .39.315.7.7.7z"/>
        <path fill="#49A4B0" d="M45.4 37.601h4.202v-4.2H45.4v4.2zM44.7 39h5.6c.386 0 .7-.31.7-.7v-5.6a.7.7 0 0 0-.7-.7h-5.6a.7.7 0 0 0-.7.7v5.6c0 .39.315.7.7.7z"/>
        <path stroke="#49A4B0" stroke-width=".25" d="M45.4 37.601h4.202v-4.2H45.4v4.2zM44.7 39h5.6c.386 0 .7-.31.7-.7v-5.6a.7.7 0 0 0-.7-.7h-5.6a.7.7 0 0 0-.7.7v5.6c0 .39.315.7.7.7z"/>
        <path fill="#49A4B0" d="M11.4 37.601h4.201v-4.2h-4.2v4.2zM10.7 39h5.6a.7.7 0 0 0 .7-.7v-5.6a.7.7 0 0 0-.7-.7h-5.6a.7.7 0 0 0-.7.7v5.6c0 .39.315.7.7.7z"/>
        <path stroke="#49A4B0" stroke-width=".25" d="M11.4 37.601h4.201v-4.2h-4.2v4.2zM10.7 39h5.6a.7.7 0 0 0 .7-.7v-5.6a.7.7 0 0 0-.7-.7h-5.6a.7.7 0 0 0-.7.7v5.6c0 .39.315.7.7.7z"/>
        <path fill="#49A4B0" d="M67.6 37.6h-4.2V33.4h4.2V37.6zm.7-5.6h-5.6a.7.7 0 0 0-.7.7v5.6c0 .39.314.7.7.7h5.6a.7.7 0 0 0 .7-.7v-5.6a.7.7 0 0 0-.7-.7z"/>
        <path stroke="#49A4B0" stroke-width=".25" d="M67.6 37.6h-4.2V33.4h4.2V37.6zm.7-5.6h-5.6a.7.7 0 0 0-.7.7v5.6c0 .39.314.7.7.7h5.6a.7.7 0 0 0 .7-.7v-5.6a.7.7 0 0 0-.7-.7z"/>
        <path fill="#49A4B0" d="M37.4 37.601h4.2v-4.2h-4.2v4.2zM36.7 39h5.6c.386 0 .7-.31.7-.7v-5.6a.7.7 0 0 0-.7-.7h-5.6a.7.7 0 0 0-.7.7v5.6c0 .39.315.7.7.7z"/>
        <path stroke="#49A4B0" stroke-width=".25" d="M37.4 37.601h4.2v-4.2h-4.2v4.2zM36.7 39h5.6c.386 0 .7-.31.7-.7v-5.6a.7.7 0 0 0-.7-.7h-5.6a.7.7 0 0 0-.7.7v5.6c0 .39.315.7.7.7z"/>
        <path fill="#49A4B0" d="M29.4 37.601h4.201v-4.2h-4.2v4.2zM28.7 39h5.6c.386 0 .7-.31.7-.7v-5.6a.7.7 0 0 0-.7-.7h-5.6a.7.7 0 0 0-.7.7v5.6c0 .39.314.7.7.7z"/>
        <path stroke="#49A4B0" stroke-width=".25" d="M29.4 37.601h4.201v-4.2h-4.2v4.2zM28.7 39h5.6c.386 0 .7-.31.7-.7v-5.6a.7.7 0 0 0-.7-.7h-5.6a.7.7 0 0 0-.7.7v5.6c0 .39.314.7.7.7z"/>
        <path fill="#49A4B0" d="M20.4 37.601h4.2v-4.2h-4.2v4.2zM19.7 39h5.6a.7.7 0 0 0 .7-.7v-5.6a.7.7 0 0 0-.7-.7h-5.6a.7.7 0 0 0-.7.7v5.6c0 .39.314.7.7.7z"/>
        <path stroke="#49A4B0" stroke-width=".25" d="M20.4 37.601h4.2v-4.2h-4.2v4.2zM19.7 39h5.6a.7.7 0 0 0 .7-.7v-5.6a.7.7 0 0 0-.7-.7h-5.6a.7.7 0 0 0-.7.7v5.6c0 .39.314.7.7.7z"/>
    </g>
</svg>
